STARTFONT 2.1
COMMENT Copyright (C) 1990-1991 EWT Consulting
COMMENT Portions Copyright (C) 1994-1995 Cronyx Ltd.
COMMENT Modified by Serge Vakulenko, <vak@cronyx.ru>
COMMENT Encoding changed to CP1251 by Rabinovich Moisei, <moisei@cs.bgu.ac.il>,$
COMMENT This software may be used, modified, copied, distributed, and sold,
COMMENT in both source and binary form provided that the copyright
COMMENT and these terms are retained. Under no circumstances is the author
COMMENT responsible for the proper functioning of this software, nor does
COMMENT the author assume any responsibility for damages incurred with its use.
FONT -Cronyx-Times-Medium-R-Normal--8-80-75-75-P-44-RAWIN-R
SIZE 8 96 96
FONTBOUNDINGBOX 11 13 0 -2
STARTPROPERTIES 19
DEFAULT_CHAR 32
FONT_ASCENT 11
FONT_DESCENT 2
SPACING "P"
FONTNAME_REGISTRY ""
FOUNDRY "Cronyx"
FAMILY_NAME "Times"
WEIGHT_NAME "Medium"
SLANT "R"
SETWIDTH_NAME "Normal"
ADD_STYLE_NAME ""
AVERAGE_WIDTH 44
CHARSET_REGISTRY "RAWIN"
CHARSET_ENCODING "R"
PIXEL_SIZE 8
POINT_SIZE 80
RESOLUTION_X 75
RESOLUTION_Y 75
COPYRIGHT "Copyright (C) 1990, 1991 EWT Consulting, Portions Copyright (C) 1994 Cronyx Ltd."
ENDPROPERTIES
CHARS 224
STARTCHAR space
ENCODING 32
SWIDTH 153 0
DWIDTH 2 0
BBX 2 13 0 -2
BITMAP
00
00
00
00
00
00
00
00
00
00
00
00
00
ENDCHAR
STARTCHAR exclam
ENCODING 33
SWIDTH 230 0
DWIDTH 3 0
BBX 3 13 0 -2
BITMAP
00
00
40
40
40
40
40
40
00
00
40
00
00
ENDCHAR
STARTCHAR quotedbl
ENCODING 34
SWIDTH 307 0
DWIDTH 4 0
BBX 4 13 0 -2
BITMAP
00
00
50
50
50
00
00
00
00
00
00
00
00
ENDCHAR
STARTCHAR numbersign
ENCODING 35
SWIDTH 461 0
DWIDTH 6 0
BBX 6 13 0 -2
BITMAP
00
00
28
28
7c
28
28
28
7c
28
28
00
00
ENDCHAR
STARTCHAR dollar
ENCODING 36
SWIDTH 384 0
DWIDTH 5 0
BBX 5 13 0 -2
BITMAP
00
00
10
30
48
40
20
10
08
48
30
10
00
ENDCHAR
STARTCHAR percent
ENCODING 37
SWIDTH 769 0
DWIDTH 10 0
BBX 10 13 0 -2
BITMAP
0000
0000
3040
4880
4900
3200
0400
0980
1240
2240
4180
0000
0000
ENDCHAR
STARTCHAR ampersand
ENCODING 38
SWIDTH 615 0
DWIDTH 8 0
BBX 8 13 0 -2
BITMAP
00
00
30
48
48
30
30
4b
4a
44
3a
00
00
ENDCHAR
STARTCHAR quoteright
ENCODING 39
SWIDTH 153 0
DWIDTH 2 0
BBX 2 13 0 -2
BITMAP
00
00
40
40
40
00
00
00
00
00
00
00
00
ENDCHAR
STARTCHAR parenleft
ENCODING 40
SWIDTH 230 0
DWIDTH 3 0
BBX 3 13 0 -2
BITMAP
00
00
20
20
40
40
40
40
40
40
40
20
20
ENDCHAR
STARTCHAR parenright
ENCODING 41
SWIDTH 230 0
DWIDTH 3 0
BBX 3 13 0 -2
BITMAP
00
00
40
40
20
20
20
20
20
20
20
40
40
ENDCHAR
STARTCHAR asterisk
ENCODING 42
SWIDTH 384 0
DWIDTH 5 0
BBX 5 13 0 -2
BITMAP
00
00
48
30
30
48
00
00
00
00
00
00
00
ENDCHAR
STARTCHAR plus
ENCODING 43
SWIDTH 461 0
DWIDTH 6 0
BBX 6 13 0 -2
BITMAP
00
00
00
00
10
10
7c
10
10
00
00
00
00
ENDCHAR
STARTCHAR comma
ENCODING 44
SWIDTH 153 0
DWIDTH 2 0
BBX 2 13 0 -2
BITMAP
00
00
00
00
00
00
00
00
00
00
40
40
00
ENDCHAR
STARTCHAR minus
ENCODING 45
SWIDTH 230 0
DWIDTH 3 0
BBX 3 13 0 -2
BITMAP
00
00
00
00
00
00
60
00
00
00
00
00
00
ENDCHAR
STARTCHAR period
ENCODING 46
SWIDTH 153 0
DWIDTH 2 0
BBX 2 13 0 -2
BITMAP
00
00
00
00
00
00
00
00
00
00
40
00
00
ENDCHAR
STARTCHAR slash
ENCODING 47
SWIDTH 230 0
DWIDTH 3 0
BBX 3 13 0 -2
BITMAP
00
00
20
20
20
20
20
40
40
40
40
00
00
ENDCHAR
STARTCHAR zero
ENCODING 48
SWIDTH 384 0
DWIDTH 5 0
BBX 5 13 0 -2
BITMAP
00
00
30
48
48
48
48
48
48
48
30
00
00
ENDCHAR
STARTCHAR one
ENCODING 49
SWIDTH 384 0
DWIDTH 5 0
BBX 5 13 0 -2
BITMAP
00
00
10
30
10
10
10
10
10
10
38
00
00
ENDCHAR
STARTCHAR two
ENCODING 50
SWIDTH 384 0
DWIDTH 5 0
BBX 5 13 0 -2
BITMAP
00
00
30
48
08
08
10
20
40
48
78
00
00
ENDCHAR
STARTCHAR three
ENCODING 51
SWIDTH 384 0
DWIDTH 5 0
BBX 5 13 0 -2
BITMAP
00
00
30
48
08
08
30
08
08
48
30
00
00
ENDCHAR
STARTCHAR four
ENCODING 52
SWIDTH 384 0
DWIDTH 5 0
BBX 5 13 0 -2
BITMAP
00
00
08
18
18
28
28
48
78
08
08
00
00
ENDCHAR
STARTCHAR five
ENCODING 53
SWIDTH 384 0
DWIDTH 5 0
BBX 5 13 0 -2
BITMAP
00
00
78
40
40
70
48
08
08
48
30
00
00
ENDCHAR
STARTCHAR six
ENCODING 54
SWIDTH 384 0
DWIDTH 5 0
BBX 5 13 0 -2
BITMAP
00
00
30
48
40
40
70
48
48
48
30
00
00
ENDCHAR
STARTCHAR seven
ENCODING 55
SWIDTH 384 0
DWIDTH 5 0
BBX 5 13 0 -2
BITMAP
00
00
78
48
48
10
10
10
20
20
20
00
00
ENDCHAR
STARTCHAR eight
ENCODING 56
SWIDTH 384 0
DWIDTH 5 0
BBX 5 13 0 -2
BITMAP
00
00
30
48
48
48
30
48
48
48
30
00
00
ENDCHAR
STARTCHAR nine
ENCODING 57
SWIDTH 384 0
DWIDTH 5 0
BBX 5 13 0 -2
BITMAP
00
00
30
48
48
48
38
08
08
08
30
00
00
ENDCHAR
STARTCHAR colon
ENCODING 58
SWIDTH 153 0
DWIDTH 2 0
BBX 2 13 0 -2
BITMAP
00
00
00
00
40
00
00
00
00
00
40
00
00
ENDCHAR
STARTCHAR semicolon
ENCODING 59
SWIDTH 153 0
DWIDTH 2 0
BBX 2 13 0 -2
BITMAP
00
00
00
00
40
00
00
00
00
00
40
40
00
ENDCHAR
STARTCHAR less
ENCODING 60
SWIDTH 461 0
DWIDTH 6 0
BBX 6 13 0 -2
BITMAP
00
00
00
00
00
0c
30
40
30
0c
00
00
00
ENDCHAR
STARTCHAR equal
ENCODING 61
SWIDTH 461 0
DWIDTH 6 0
BBX 6 13 0 -2
BITMAP
00
00
00
00
00
00
7c
00
7c
00
00
00
00
ENDCHAR
STARTCHAR greater
ENCODING 62
SWIDTH 461 0
DWIDTH 6 0
BBX 6 13 0 -2
BITMAP
00
00
00
00
00
60
18
04
18
60
00
00
00
ENDCHAR
STARTCHAR question
ENCODING 63
SWIDTH 384 0
DWIDTH 5 0
BBX 5 13 0 -2
BITMAP
00
00
30
48
48
08
10
20
20
00
20
00
00
ENDCHAR
STARTCHAR at
ENCODING 64
SWIDTH 692 0
DWIDTH 9 0
BBX 9 13 0 -2
BITMAP
0000
0000
1e00
2100
4e80
5280
5280
5280
5280
4d00
2000
1e00
0000
ENDCHAR
STARTCHAR A
ENCODING 65
SWIDTH 615 0
DWIDTH 8 0
BBX 8 13 0 -2
BITMAP
00
00
08
08
14
14
14
22
3e
22
77
00
00
ENDCHAR
STARTCHAR B
ENCODING 66
SWIDTH 461 0
DWIDTH 6 0
BBX 6 13 0 -2
BITMAP
00
00
78
24
24
24
38
24
24
24
78
00
00
ENDCHAR
STARTCHAR C
ENCODING 67
SWIDTH 461 0
DWIDTH 6 0
BBX 6 13 0 -2
BITMAP
00
00
3c
44
40
40
40
40
40
44
38
00
00
ENDCHAR
STARTCHAR D
ENCODING 68
SWIDTH 538 0
DWIDTH 7 0
BBX 7 13 0 -2
BITMAP
00
00
78
24
22
22
22
22
22
24
78
00
00
ENDCHAR
STARTCHAR E
ENCODING 69
SWIDTH 461 0
DWIDTH 6 0
BBX 6 13 0 -2
BITMAP
00
00
7c
24
20
28
38
28
20
24
7c
00
00
ENDCHAR
STARTCHAR F
ENCODING 70
SWIDTH 461 0
DWIDTH 6 0
BBX 6 13 0 -2
BITMAP
00
00
7c
24
20
28
38
28
20
20
70
00
00
ENDCHAR
STARTCHAR G
ENCODING 71
SWIDTH 538 0
DWIDTH 7 0
BBX 7 13 0 -2
BITMAP
00
00
3c
44
40
40
4e
44
44
44
38
00
00
ENDCHAR
STARTCHAR H
ENCODING 72
SWIDTH 615 0
DWIDTH 8 0
BBX 8 13 0 -2
BITMAP
00
00
77
22
22
22
3e
22
22
22
77
00
00
ENDCHAR
STARTCHAR I
ENCODING 73
SWIDTH 307 0
DWIDTH 4 0
BBX 4 13 0 -2
BITMAP
00
00
70
20
20
20
20
20
20
20
70
00
00
ENDCHAR
STARTCHAR J
ENCODING 74
SWIDTH 384 0
DWIDTH 5 0
BBX 5 13 0 -2
BITMAP
00
00
38
10
10
10
10
10
10
50
60
00
00
ENDCHAR
STARTCHAR K
ENCODING 75
SWIDTH 615 0
DWIDTH 8 0
BBX 8 13 0 -2
BITMAP
00
00
76
24
28
30
30
28
24
22
73
00
00
ENDCHAR
STARTCHAR L
ENCODING 76
SWIDTH 461 0
DWIDTH 6 0
BBX 6 13 0 -2
BITMAP
00
00
70
20
20
20
20
20
20
24
7c
00
00
ENDCHAR
STARTCHAR M
ENCODING 77
SWIDTH 769 0
DWIDTH 10 0
BBX 10 13 0 -2
BITMAP
0000
0000
60c0
2080
3180
3180
2a80
2a80
2480
2480
71c0
0000
0000
ENDCHAR
STARTCHAR N
ENCODING 78
SWIDTH 615 0
DWIDTH 8 0
BBX 8 13 0 -2
BITMAP
00
00
67
22
32
32
2a
2a
26
26
72
00
00
ENDCHAR
STARTCHAR O
ENCODING 79
SWIDTH 461 0
DWIDTH 6 0
BBX 6 13 0 -2
BITMAP
00
00
38
44
44
44
44
44
44
44
38
00
00
ENDCHAR
STARTCHAR P
ENCODING 80
SWIDTH 461 0
DWIDTH 6 0
BBX 6 13 0 -2
BITMAP
00
00
78
24
24
24
38
20
20
20
70
00
00
ENDCHAR
STARTCHAR Q
ENCODING 81
SWIDTH 461 0
DWIDTH 6 0
BBX 6 13 0 -2
BITMAP
00
00
38
44
44
44
44
44
44
44
38
18
0c
ENDCHAR
STARTCHAR R
ENCODING 82
SWIDTH 538 0
DWIDTH 7 0
BBX 7 13 0 -2
BITMAP
00
00
78
24
24
24
38
28
24
24
76
00
00
ENDCHAR
STARTCHAR S
ENCODING 83
SWIDTH 307 0
DWIDTH 4 0
BBX 4 13 0 -2
BITMAP
00
00
30
50
40
40
20
10
10
50
60
00
00
ENDCHAR
STARTCHAR T
ENCODING 84
SWIDTH 461 0
DWIDTH 6 0
BBX 6 13 0 -2
BITMAP
00
00
7c
54
10
10
10
10
10
10
38
00
00
ENDCHAR
STARTCHAR U
ENCODING 85
SWIDTH 615 0
DWIDTH 8 0
BBX 8 13 0 -2
BITMAP
00
00
77
22
22
22
22
22
22
22
1c
00
00
ENDCHAR
STARTCHAR V
ENCODING 86
SWIDTH 615 0
DWIDTH 8 0
BBX 8 13 0 -2
BITMAP
00
00
77
22
22
22
14
14
14
08
08
00
00
ENDCHAR
STARTCHAR W
ENCODING 87
SWIDTH 769 0
DWIDTH 10 0
BBX 10 13 0 -2
BITMAP
0000
0000
71c0
2080
2080
2480
2480
2a80
2a80
1100
1100
0000
0000
ENDCHAR
STARTCHAR X
ENCODING 88
SWIDTH 615 0
DWIDTH 8 0
BBX 8 13 0 -2
BITMAP
00
00
77
22
14
14
08
14
14
22
77
00
00
ENDCHAR
STARTCHAR Y
ENCODING 89
SWIDTH 615 0
DWIDTH 8 0
BBX 8 13 0 -2
BITMAP
00
00
77
22
22
14
14
08
08
08
1c
00
00
ENDCHAR
STARTCHAR Z
ENCODING 90
SWIDTH 461 0
DWIDTH 6 0
BBX 6 13 0 -2
BITMAP
00
00
7c
44
08
08
10
20
20
44
7c
00
00
ENDCHAR
STARTCHAR bracketleft
ENCODING 91
SWIDTH 230 0
DWIDTH 3 0
BBX 3 13 0 -2
BITMAP
00
00
60
40
40
40
40
40
40
40
40
40
60
ENDCHAR
STARTCHAR backslash
ENCODING 92
SWIDTH 230 0
DWIDTH 3 0
BBX 3 13 0 -2
BITMAP
00
00
40
40
40
40
40
20
20
20
20
00
00
ENDCHAR
STARTCHAR bracketright
ENCODING 93
SWIDTH 230 0
DWIDTH 3 0
BBX 3 13 0 -2
BITMAP
00
00
60
20
20
20
20
20
20
20
20
20
60
ENDCHAR
STARTCHAR asciicircum
ENCODING 94
SWIDTH 384 0
DWIDTH 5 0
BBX 5 13 0 -2
BITMAP
00
00
30
48
00
00
00
00
00
00
00
00
00
ENDCHAR
STARTCHAR underscore
ENCODING 95
SWIDTH 384 0
DWIDTH 5 0
BBX 5 13 0 -2
BITMAP
00
00
00
00
00
00
00
00
00
00
00
00
f8
ENDCHAR
STARTCHAR quoteleft
ENCODING 96
SWIDTH 230 0
DWIDTH 3 0
BBX 3 13 0 -2
BITMAP
00
00
40
20
00
00
00
00
00
00
00
00
00
ENDCHAR
STARTCHAR a
ENCODING 97
SWIDTH 384 0
DWIDTH 5 0
BBX 5 13 0 -2
BITMAP
00
00
00
00
00
30
08
38
48
48
38
00
00
ENDCHAR
STARTCHAR b
ENCODING 98
SWIDTH 384 0
DWIDTH 5 0
BBX 5 13 0 -2
BITMAP
00
00
c0
40
40
70
48
48
48
48
30
00
00
ENDCHAR
STARTCHAR c
ENCODING 99
SWIDTH 384 0
DWIDTH 5 0
BBX 5 13 0 -2
BITMAP
00
00
00
00
00
30
48
40
40
48
30
00
00
ENDCHAR
STARTCHAR d
ENCODING 100
SWIDTH 384 0
DWIDTH 5 0
BBX 5 13 0 -2
BITMAP
00
00
18
08
08
38
48
48
48
48
38
00
00
ENDCHAR
STARTCHAR e
ENCODING 101
SWIDTH 384 0
DWIDTH 5 0
BBX 5 13 0 -2
BITMAP
00
00
00
00
00
30
48
78
40
48
30
00
00
ENDCHAR
STARTCHAR f
ENCODING 102
SWIDTH 307 0
DWIDTH 4 0
BBX 4 13 0 -2
BITMAP
00
00
10
20
20
70
20
20
20
20
30
00
00
ENDCHAR
STARTCHAR g
ENCODING 103
SWIDTH 384 0
DWIDTH 5 0
BBX 5 13 0 -2
BITMAP
00
00
00
00
00
38
48
48
48
48
38
08
30
ENDCHAR
STARTCHAR h
ENCODING 104
SWIDTH 384 0
DWIDTH 5 0
BBX 5 13 0 -2
BITMAP
00
00
c0
40
40
70
48
48
48
48
48
00
00
ENDCHAR
STARTCHAR i
ENCODING 105
SWIDTH 230 0
DWIDTH 3 0
BBX 3 13 0 -2
BITMAP
00
00
20
00
00
60
20
20
20
20
20
00
00
ENDCHAR
STARTCHAR j
ENCODING 106
SWIDTH 230 0
DWIDTH 3 0
BBX 3 13 0 -2
BITMAP
00
00
20
00
00
60
20
20
20
20
20
20
40
ENDCHAR
STARTCHAR k
ENCODING 107
SWIDTH 384 0
DWIDTH 5 0
BBX 5 13 0 -2
BITMAP
00
00
c0
40
40
48
50
60
60
50
48
00
00
ENDCHAR
STARTCHAR l
ENCODING 108
SWIDTH 153 0
DWIDTH 2 0
BBX 2 13 0 -2
BITMAP
00
00
c0
40
40
40
40
40
40
40
40
00
00
ENDCHAR
STARTCHAR m
ENCODING 109
SWIDTH 615 0
DWIDTH 8 0
BBX 8 13 0 -2
BITMAP
00
00
00
00
00
b6
49
49
49
49
49
00
00
ENDCHAR
STARTCHAR n
ENCODING 110
SWIDTH 384 0
DWIDTH 5 0
BBX 5 13 0 -2
BITMAP
00
00
00
00
00
b0
48
48
48
48
48
00
00
ENDCHAR
STARTCHAR o
ENCODING 111
SWIDTH 384 0
DWIDTH 5 0
BBX 5 13 0 -2
BITMAP
00
00
00
00
00
30
48
48
48
48
30
00
00
ENDCHAR
STARTCHAR p
ENCODING 112
SWIDTH 384 0
DWIDTH 5 0
BBX 5 13 0 -2
BITMAP
00
00
00
00
00
b0
48
48
48
48
70
40
e0
ENDCHAR
STARTCHAR q
ENCODING 113
SWIDTH 384 0
DWIDTH 5 0
BBX 5 13 0 -2
BITMAP
00
00
00
00
00
30
48
48
48
48
38
08
18
ENDCHAR
STARTCHAR r
ENCODING 114
SWIDTH 307 0
DWIDTH 4 0
BBX 4 13 0 -2
BITMAP
00
00
00
00
00
b0
50
40
40
40
60
00
00
ENDCHAR
STARTCHAR s
ENCODING 115
SWIDTH 307 0
DWIDTH 4 0
BBX 4 13 0 -2
BITMAP
00
00
00
00
00
30
40
20
10
10
60
00
00
ENDCHAR
STARTCHAR t
ENCODING 116
SWIDTH 307 0
DWIDTH 4 0
BBX 4 13 0 -2
BITMAP
00
00
00
20
20
70
20
20
20
20
10
00
00
ENDCHAR
STARTCHAR u
ENCODING 117
SWIDTH 384 0
DWIDTH 5 0
BBX 5 13 0 -2
BITMAP
00
00
00
00
00
d8
48
48
48
48
38
00
00
ENDCHAR
STARTCHAR v
ENCODING 118
SWIDTH 384 0
DWIDTH 5 0
BBX 5 13 0 -2
BITMAP
00
00
00
00
00
88
88
50
50
20
20
00
00
ENDCHAR
STARTCHAR w
ENCODING 119
SWIDTH 615 0
DWIDTH 8 0
BBX 8 13 0 -2
BITMAP
00
00
00
00
00
6b
49
55
55
22
22
00
00
ENDCHAR
STARTCHAR x
ENCODING 120
SWIDTH 384 0
DWIDTH 5 0
BBX 5 13 0 -2
BITMAP
00
00
00
00
00
d8
50
20
20
50
d8
00
00
ENDCHAR
STARTCHAR y
ENCODING 121
SWIDTH 384 0
DWIDTH 5 0
BBX 5 13 0 -2
BITMAP
00
00
00
00
00
48
48
48
48
30
20
20
40
ENDCHAR
STARTCHAR z
ENCODING 122
SWIDTH 384 0
DWIDTH 5 0
BBX 5 13 0 -2
BITMAP
00
00
00
00
00
78
48
10
20
48
78
00
00
ENDCHAR
STARTCHAR braceleft
ENCODING 123
SWIDTH 307 0
DWIDTH 4 0
BBX 4 13 0 -2
BITMAP
00
00
10
20
20
20
20
40
20
20
20
20
10
ENDCHAR
STARTCHAR bar
ENCODING 124
SWIDTH 153 0
DWIDTH 2 0
BBX 2 13 0 -2
BITMAP
00
00
00
40
40
40
40
40
40
40
40
40
00
ENDCHAR
STARTCHAR braceright
ENCODING 125
SWIDTH 307 0
DWIDTH 4 0
BBX 4 13 0 -2
BITMAP
00
00
40
20
20
20
20
10
20
20
20
20
40
ENDCHAR
STARTCHAR asciitilde
ENCODING 126
SWIDTH 461 0
DWIDTH 6 0
BBX 6 13 0 -2
BITMAP
00
00
34
58
00
00
00
00
00
00
00
00
00
ENDCHAR
STARTCHAR C177
ENCODING -1
SWIDTH 307 0
DWIDTH 4 0
BBX 4 13 0 -2
BITMAP
00
00
00
60
60
60
60
60
60
60
60
60
00
ENDCHAR
STARTCHAR C200
ENCODING -1
SWIDTH 307 0
DWIDTH 4 0
BBX 4 13 0 -2
BITMAP
00
00
00
60
60
60
60
60
60
60
60
60
00
ENDCHAR
STARTCHAR C201
ENCODING -1
SWIDTH 307 0
DWIDTH 4 0
BBX 4 13 0 -2
BITMAP
00
00
00
60
60
60
60
60
60
60
60
60
00
ENDCHAR
STARTCHAR C202
ENCODING -1
SWIDTH 307 0
DWIDTH 4 0
BBX 4 13 0 -2
BITMAP
00
00
00
60
60
60
60
60
60
60
60
60
00
ENDCHAR
STARTCHAR C203
ENCODING -1
SWIDTH 307 0
DWIDTH 4 0
BBX 4 13 0 -2
BITMAP
00
00
00
60
60
60
60
60
60
60
60
60
00
ENDCHAR
STARTCHAR C204
ENCODING -1
SWIDTH 307 0
DWIDTH 4 0
BBX 4 13 0 -2
BITMAP
00
00
00
60
60
60
60
60
60
60
60
60
00
ENDCHAR
STARTCHAR C205
ENCODING -1
SWIDTH 307 0
DWIDTH 4 0
BBX 4 13 0 -2
BITMAP
00
00
00
60
60
60
60
60
60
60
60
60
00
ENDCHAR
STARTCHAR C206
ENCODING -1
SWIDTH 307 0
DWIDTH 4 0
BBX 4 13 0 -2
BITMAP
00
00
00
60
60
60
60
60
60
60
60
60
00
ENDCHAR
STARTCHAR C207
ENCODING -1
SWIDTH 307 0
DWIDTH 4 0
BBX 4 13 0 -2
BITMAP
00
00
00
60
60
60
60
60
60
60
60
60
00
ENDCHAR
STARTCHAR C210
ENCODING -1
SWIDTH 307 0
DWIDTH 4 0
BBX 4 13 0 -2
BITMAP
00
00
00
60
60
60
60
60
60
60
60
60
00
ENDCHAR
STARTCHAR C211
ENCODING -1
SWIDTH 307 0
DWIDTH 4 0
BBX 4 13 0 -2
BITMAP
00
00
00
60
60
60
60
60
60
60
60
60
00
ENDCHAR
STARTCHAR C212
ENCODING -1
SWIDTH 307 0
DWIDTH 4 0
BBX 4 13 0 -2
BITMAP
00
00
00
60
60
60
60
60
60
60
60
60
00
ENDCHAR
STARTCHAR C213
ENCODING -1
SWIDTH 307 0
DWIDTH 4 0
BBX 4 13 0 -2
BITMAP
00
00
00
60
60
60
60
60
60
60
60
60
00
ENDCHAR
STARTCHAR C214
ENCODING -1
SWIDTH 307 0
DWIDTH 4 0
BBX 4 13 0 -2
BITMAP
00
00
00
60
60
60
60
60
60
60
60
60
00
ENDCHAR
STARTCHAR C215
ENCODING -1
SWIDTH 307 0
DWIDTH 4 0
BBX 4 13 0 -2
BITMAP
00
00
00
60
60
60
60
60
60
60
60
60
00
ENDCHAR
STARTCHAR C216
ENCODING -1
SWIDTH 307 0
DWIDTH 4 0
BBX 4 13 0 -2
BITMAP
00
00
00
60
60
60
60
60
60
60
60
60
00
ENDCHAR
STARTCHAR C217
ENCODING -1
SWIDTH 307 0
DWIDTH 4 0
BBX 4 13 0 -2
BITMAP
00
00
00
60
60
60
60
60
60
60
60
60
00
ENDCHAR
STARTCHAR C220
ENCODING -1
SWIDTH 307 0
DWIDTH 4 0
BBX 4 13 0 -2
BITMAP
00
00
00
60
60
60
60
60
60
60
60
60
00
ENDCHAR
STARTCHAR C221
ENCODING -1
SWIDTH 153 0
DWIDTH 2 0
BBX 2 13 0 -2
BITMAP
00
00
40
40
00
00
00
00
00
00
00
00
00
ENDCHAR
STARTCHAR C222
ENCODING -1
SWIDTH 153 0
DWIDTH 2 0
BBX 2 13 0 -2
BITMAP
00
00
40
40
00
00
00
00
00
00
00
00
00
ENDCHAR
STARTCHAR C223
ENCODING -1
SWIDTH 307 0
DWIDTH 4 0
BBX 4 13 0 -2
BITMAP
00
00
00
60
60
60
60
60
60
60
60
60
00
ENDCHAR
STARTCHAR C224
ENCODING -1
SWIDTH 307 0
DWIDTH 4 0
BBX 4 13 0 -2
BITMAP
00
00
00
60
60
60
60
60
60
60
60
60
00
ENDCHAR
STARTCHAR C225
ENCODING -1
SWIDTH 307 0
DWIDTH 4 0
BBX 4 13 0 -2
BITMAP
00
00
00
60
60
60
60
60
60
60
60
60
00
ENDCHAR
STARTCHAR C226
ENCODING -1
SWIDTH 307 0
DWIDTH 4 0
BBX 4 13 0 -2
BITMAP
00
00
00
60
60
60
60
60
60
60
60
60
00
ENDCHAR
STARTCHAR C227
ENCODING -1
SWIDTH 307 0
DWIDTH 4 0
BBX 4 13 0 -2
BITMAP
00
00
00
60
60
60
60
60
60
60
60
60
00
ENDCHAR
STARTCHAR C230
ENCODING -1
SWIDTH 307 0
DWIDTH 4 0
BBX 4 13 0 -2
BITMAP
00
00
00
60
60
60
60
60
60
60
60
60
00
ENDCHAR
STARTCHAR C231
ENCODING -1
SWIDTH 307 0
DWIDTH 4 0
BBX 4 13 0 -2
BITMAP
00
00
00
60
60
60
60
60
60
60
60
60
00
ENDCHAR
STARTCHAR C232
ENCODING -1
SWIDTH 307 0
DWIDTH 4 0
BBX 4 13 0 -2
BITMAP
00
00
00
60
60
60
60
60
60
60
60
60
00
ENDCHAR
STARTCHAR C233
ENCODING -1
SWIDTH 307 0
DWIDTH 4 0
BBX 4 13 0 -2
BITMAP
00
00
00
60
60
60
60
60
60
60
60
60
00
ENDCHAR
STARTCHAR C234
ENCODING -1
SWIDTH 307 0
DWIDTH 4 0
BBX 4 13 0 -2
BITMAP
00
00
00
60
60
60
60
60
60
60
60
60
00
ENDCHAR
STARTCHAR C235
ENCODING -1
SWIDTH 307 0
DWIDTH 4 0
BBX 4 13 0 -2
BITMAP
00
00
00
60
60
60
60
60
60
60
60
60
00
ENDCHAR
STARTCHAR C236
ENCODING -1
SWIDTH 307 0
DWIDTH 4 0
BBX 4 13 0 -2
BITMAP
00
00
00
60
60
60
60
60
60
60
60
60
00
ENDCHAR
STARTCHAR C237
ENCODING -1
SWIDTH 307 0
DWIDTH 4 0
BBX 4 13 0 -2
BITMAP
00
00
00
60
60
60
60
60
60
60
60
60
00
ENDCHAR
STARTCHAR C240
ENCODING 160
SWIDTH 153 0
DWIDTH 2 0
BBX 2 13 0 -2
BITMAP
00
00
00
00
00
00
00
00
00
00
00
00
00
ENDCHAR
STARTCHAR exclamdown
ENCODING 161
SWIDTH 615 0
DWIDTH 8 0
BBX 8 13 0 -2
BITMAP
36
00
7e
22
20
24
3c
24
20
22
7e
00
00
ENDCHAR
STARTCHAR cent
ENCODING 162
SWIDTH 384 0
DWIDTH 5 0
BBX 5 13 0 -2
BITMAP
00
00
00
00
10
30
48
40
40
48
30
20
00
ENDCHAR
STARTCHAR sterling
ENCODING 184
SWIDTH 384 0
DWIDTH 5 0
BBX 5 13 0 -2
BITMAP
00
00
20
50
50
40
20
70
20
20
78
00
00
ENDCHAR
STARTCHAR currency
ENCODING 164
SWIDTH 384 0
DWIDTH 5 0
BBX 5 13 0 -2
BITMAP
00
00
00
00
48
30
30
48
00
00
00
00
00
ENDCHAR
STARTCHAR yen
ENCODING 165
SWIDTH 384 0
DWIDTH 5 0
BBX 5 13 0 -2
BITMAP
00
00
d8
88
f8
50
f8
20
20
20
70
00
00
ENDCHAR
STARTCHAR brokenbar
ENCODING 166
SWIDTH 153 0
DWIDTH 2 0
BBX 2 13 0 -2
BITMAP
00
00
40
40
40
40
40
00
40
40
40
40
40
ENDCHAR
STARTCHAR section
ENCODING 167
SWIDTH 384 0
DWIDTH 5 0
BBX 5 13 0 -2
BITMAP
00
00
30
48
40
20
50
48
28
10
48
48
30
ENDCHAR
STARTCHAR dieresis
ENCODING 168
SWIDTH 230 0
DWIDTH 3 0
BBX 3 13 0 -2
BITMAP
00
00
a0
00
00
00
00
00
00
00
00
00
00
ENDCHAR
STARTCHAR copyright
ENCODING 169
SWIDTH 615 0
DWIDTH 8 0
BBX 8 13 0 -2
BITMAP
00
00
1c
22
5d
51
51
5d
22
1c
00
00
00
ENDCHAR
STARTCHAR ordfeminine
ENCODING 170
SWIDTH 230 0
DWIDTH 3 0
BBX 3 13 0 -2
BITMAP
00
00
40
20
60
60
00
60
00
00
00
00
00
ENDCHAR
STARTCHAR guillemotleft
ENCODING 171
SWIDTH 384 0
DWIDTH 5 0
BBX 5 13 0 -2
BITMAP
00
00
00
00
00
00
00
28
50
50
28
00
00
ENDCHAR
STARTCHAR logicalnot
ENCODING 172
SWIDTH 461 0
DWIDTH 6 0
BBX 6 13 0 -2
BITMAP
00
00
00
00
00
00
7c
04
00
00
00
00
00
ENDCHAR
STARTCHAR hyphen
ENCODING 173
SWIDTH 230 0
DWIDTH 3 0
BBX 3 13 0 -2
BITMAP
00
00
00
00
00
00
00
60
00
00
00
00
00
ENDCHAR
STARTCHAR registered
ENCODING 174
SWIDTH 615 0
DWIDTH 8 0
BBX 8 13 0 -2
BITMAP
00
00
1c
22
59
55
59
55
22
1c
00
00
00
ENDCHAR
STARTCHAR macron
ENCODING 175
SWIDTH 384 0
DWIDTH 5 0
BBX 5 13 0 -2
BITMAP
f8
00
00
00
00
00
00
00
00
00
00
00
00
ENDCHAR
STARTCHAR degree
ENCODING 176
SWIDTH 230 0
DWIDTH 3 0
BBX 3 13 0 -2
BITMAP
00
00
40
a0
40
00
00
00
00
00
00
00
00
ENDCHAR
STARTCHAR plusminus
ENCODING 177
SWIDTH 461 0
DWIDTH 6 0
BBX 6 13 0 -2
BITMAP
00
00
00
00
10
10
7c
10
10
00
7c
00
00
ENDCHAR
STARTCHAR twosuperior
ENCODING 178
SWIDTH 230 0
DWIDTH 3 0
BBX 3 13 0 -2
BITMAP
00
00
c0
20
40
80
e0
00
00
00
00
00
00
ENDCHAR
STARTCHAR threesuperior
ENCODING 168
SWIDTH 230 0
DWIDTH 3 0
BBX 3 13 0 -2
BITMAP
00
00
c0
20
40
20
c0
00
00
00
00
00
00
ENDCHAR
STARTCHAR acute
ENCODING 180
SWIDTH 230 0
DWIDTH 3 0
BBX 3 13 0 -2
BITMAP
00
00
20
40
00
00
00
00
00
00
00
00
00
ENDCHAR
STARTCHAR mu
ENCODING 181
SWIDTH 461 0
DWIDTH 6 0
BBX 6 13 0 -2
BITMAP
00
00
00
00
00
00
00
48
48
48
74
40
40
ENDCHAR
STARTCHAR paragraph
ENCODING 182
SWIDTH 384 0
DWIDTH 5 0
BBX 5 13 0 -2
BITMAP
00
00
38
70
70
70
30
10
10
10
10
10
00
ENDCHAR
STARTCHAR periodcentered
ENCODING 183
SWIDTH 153 0
DWIDTH 2 0
BBX 2 13 0 -2
BITMAP
00
00
00
00
00
00
40
00
00
00
00
00
00
ENDCHAR
STARTCHAR cedilla
ENCODING 184
SWIDTH 230 0
DWIDTH 3 0
BBX 3 13 0 -2
BITMAP
00
00
00
00
00
00
00
00
00
00
00
20
60
ENDCHAR
STARTCHAR onesuperior
ENCODING 185
SWIDTH 230 0
DWIDTH 3 0
BBX 3 13 0 -2
BITMAP
00
00
40
c0
40
40
e0
00
00
00
00
00
00
ENDCHAR
STARTCHAR ordmasculine
ENCODING 186
SWIDTH 230 0
DWIDTH 3 0
BBX 3 13 0 -2
BITMAP
00
00
60
60
60
60
00
60
00
00
00
00
00
ENDCHAR
STARTCHAR guillemotright
ENCODING 187
SWIDTH 384 0
DWIDTH 5 0
BBX 5 13 0 -2
BITMAP
00
00
00
00
00
00
00
50
28
28
50
00
00
ENDCHAR
STARTCHAR onequarter
ENCODING 188
SWIDTH 615 0
DWIDTH 8 0
BBX 8 13 0 -2
BITMAP
00
00
20
61
22
24
79
13
25
47
01
00
00
ENDCHAR
STARTCHAR onehalf
ENCODING 189
SWIDTH 615 0
DWIDTH 8 0
BBX 8 13 0 -2
BITMAP
00
00
20
61
22
24
7e
11
22
44
07
00
00
ENDCHAR
STARTCHAR threequarters
ENCODING 190
SWIDTH 615 0
DWIDTH 8 0
BBX 8 13 0 -2
BITMAP
00
00
60
11
22
14
69
13
25
47
01
00
00
ENDCHAR
STARTCHAR questiondown
ENCODING 191
SWIDTH 384 0
DWIDTH 5 0
BBX 5 13 0 -2
BITMAP
00
00
00
48
00
30
48
78
40
48
30
00
00
ENDCHAR
STARTCHAR cyr-A
ENCODING 192
SWIDTH 615 0
DWIDTH 8 0
BBX 8 13 0 -2
BITMAP
00
00
08
08
14
14
14
22
3e
22
77
00
00
ENDCHAR
STARTCHAR cyr-Be
ENCODING 193
SWIDTH 538 0
DWIDTH 7 0
BBX 7 13 0 -2
BITMAP
00
00
7e
22
20
3c
22
22
22
22
7c
00
00
ENDCHAR
STARTCHAR cyr-Ve
ENCODING 194
SWIDTH 538 0
DWIDTH 7 0
BBX 7 13 0 -2
BITMAP
00
00
7c
22
22
22
3c
22
22
22
7c
00
00
ENDCHAR
STARTCHAR cyr-Ghe
ENCODING 195
SWIDTH 538 0
DWIDTH 7 0
BBX 7 13 0 -2
BITMAP
00
00
7e
22
20
20
20
20
20
20
70
00
00
ENDCHAR
STARTCHAR cyr-De
ENCODING 196
SWIDTH 615 0
DWIDTH 8 0
BBX 8 13 0 -2
BITMAP
00
00
1e
12
12
12
12
12
12
22
7f
41
00
ENDCHAR
STARTCHAR cyr-Ie
ENCODING 197
SWIDTH 538 0
DWIDTH 7 0
BBX 7 13 0 -2
BITMAP
00
00
7e
22
20
24
3c
24
20
22
7e
00
00
ENDCHAR
STARTCHAR cyr-Zhe
ENCODING 198
SWIDTH 769 0
DWIDTH 10 0
BBX 10 13 0 -2
BITMAP
0000
0000
6ec0
2480
2480
1500
0e00
1500
2480
2480
6ec0
0000
0000
ENDCHAR
STARTCHAR cyr-Ze
ENCODING 199
SWIDTH 461 0
DWIDTH 6 0
BBX 6 13 0 -2
BITMAP
00
00
38
44
04
04
18
04
04
44
38
00
00
ENDCHAR
STARTCHAR cyr-I
ENCODING 200
SWIDTH 615 0
DWIDTH 8 0
BBX 8 13 0 -2
BITMAP
00
00
77
22
22
26
2a
2a
32
22
77
00
00
ENDCHAR
STARTCHAR cyr-I-short
ENCODING 201
SWIDTH 615 0
DWIDTH 8 0
BBX 8 13 0 -2
BITMAP
1c
00
77
22
22
22
26
2a
32
22
77
00
00
ENDCHAR
STARTCHAR cyr-Ka
ENCODING 202
SWIDTH 615 0
DWIDTH 8 0
BBX 8 13 0 -2
BITMAP
00
00
77
22
24
28
34
24
22
22
77
00
00
ENDCHAR
STARTCHAR cyr-El
ENCODING 203
SWIDTH 461 0
DWIDTH 6 0
BBX 6 13 0 -2
BITMAP
00
00
7c
24
24
24
24
24
24
24
c4
00
00
ENDCHAR
STARTCHAR cyr-Em
ENCODING 204
SWIDTH 769 0
DWIDTH 10 0
BBX 10 13 0 -2
BITMAP
0000
0000
60c0
2080
3180
3180
2a80
2a80
2480
2480
71c0
0000
0000
ENDCHAR
STARTCHAR cyr-En
ENCODING 205
SWIDTH 615 0
DWIDTH 8 0
BBX 8 13 0 -2
BITMAP
00
00
77
22
22
22
3e
22
22
22
77
00
00
ENDCHAR
STARTCHAR cyr-O
ENCODING 206
SWIDTH 461 0
DWIDTH 6 0
BBX 6 13 0 -2
BITMAP
00
00
38
44
44
44
44
44
44
44
38
00
00
ENDCHAR
STARTCHAR cyr-Pe
ENCODING 207
SWIDTH 615 0
DWIDTH 8 0
BBX 8 13 0 -2
BITMAP
00
00
7f
22
22
22
22
22
22
22
77
00
00
ENDCHAR
STARTCHAR cyr-Er
ENCODING 208
SWIDTH 538 0
DWIDTH 7 0
BBX 7 13 0 -2
BITMAP
00
00
7c
22
22
22
22
3c
20
20
70
00
00
ENDCHAR
STARTCHAR cyr-Es
ENCODING 209
SWIDTH 461 0
DWIDTH 6 0
BBX 6 13 0 -2
BITMAP
00
00
3c
44
40
40
40
40
40
44
38
00
00
ENDCHAR
STARTCHAR cyr-Te
ENCODING 210
SWIDTH 461 0
DWIDTH 6 0
BBX 6 13 0 -2
BITMAP
00
00
7c
54
10
10
10
10
10
10
38
00
00
ENDCHAR
STARTCHAR cyr-U
ENCODING 211
SWIDTH 615 0
DWIDTH 8 0
BBX 8 13 0 -2
BITMAP
00
00
77
22
22
14
14
08
08
08
70
00
00
ENDCHAR
STARTCHAR cyr-Ef
ENCODING 212
SWIDTH 769 0
DWIDTH 10 0
BBX 10 13 0 -2
BITMAP
0000
0000
1f00
2480
2480
2480
2480
2480
1f00
0400
0e00
0000
0000
ENDCHAR
STARTCHAR cyr-Kha
ENCODING 213
SWIDTH 615 0
DWIDTH 8 0
BBX 8 13 0 -2
BITMAP
00
00
77
22
22
14
08
14
22
22
77
00
00
ENDCHAR
STARTCHAR cyr-Tse
ENCODING 214
SWIDTH 615 0
DWIDTH 8 0
BBX 8 13 0 -2
BITMAP
00
00
77
22
22
22
22
22
22
22
7f
01
01
ENDCHAR
STARTCHAR cyr-Che
ENCODING 215
SWIDTH 615 0
DWIDTH 8 0
BBX 8 13 0 -2
BITMAP
00
00
77
22
22
22
1e
02
02
02
07
00
00
ENDCHAR
STARTCHAR cyr-Sha
ENCODING 216
SWIDTH 769 0
DWIDTH 10 0
BBX 10 13 0 -2
BITMAP
0000
0000
75c0
2480
2480
2480
2480
2480
2480
2480
7fc0
0000
0000
ENDCHAR
STARTCHAR cyr-Shcha
ENCODING 217
SWIDTH 769 0
DWIDTH 10 0
BBX 10 13 0 -2
BITMAP
0000
0000
75c0
2480
2480
2480
2480
2480
2480
2480
7fc0
0040
0000
ENDCHAR
STARTCHAR cyr-Ier
ENCODING 218
SWIDTH 615 0
DWIDTH 8 0
BBX 8 13 0 -2
BITMAP
00
00
78
50
50
10
1e
11
11
11
3e
00
00
ENDCHAR
STARTCHAR cyr-Iery
ENCODING 219
SWIDTH 769 0
DWIDTH 10 0
BBX 10 13 0 -2
BITMAP
0000
0000
71c0
2080
2080
2080
3c80
2280
2280
2280
7dc0
0000
0000
ENDCHAR
STARTCHAR cyr-Ierik
ENCODING 220
SWIDTH 538 0
DWIDTH 7 0
BBX 7 13 0 -2
BITMAP
00
00
70
20
20
20
3c
22
22
22
7c
00
00
ENDCHAR
STARTCHAR cyr-E-rev
ENCODING 221
SWIDTH 461 0
DWIDTH 6 0
BBX 6 13 0 -2
BITMAP
00
00
38
44
04
04
3c
04
04
44
38
00
00
ENDCHAR
STARTCHAR cyr-Yu
ENCODING 222
SWIDTH 769 0
DWIDTH 10 0
BBX 10 13 0 -2
BITMAP
0000
0000
7380
2440
2440
2440
3c40
2440
2440
2440
7380
0000
0000
ENDCHAR
STARTCHAR cyr-Ya
ENCODING 223
SWIDTH 615 0
DWIDTH 8 0
BBX 8 13 0 -2
BITMAP
00
00
1f
22
22
22
1e
0a
12
12
67
00
00
ENDCHAR
STARTCHAR cyr-a
ENCODING 224
SWIDTH 384 0
DWIDTH 5 0
BBX 5 13 0 -2
BITMAP
00
00
00
00
00
30
08
38
48
48
38
00
00
ENDCHAR
STARTCHAR cyr-be
ENCODING 225
SWIDTH 384 0
DWIDTH 5 0
BBX 5 13 0 -2
BITMAP
00
08
30
40
40
70
48
48
48
48
30
00
00
ENDCHAR
STARTCHAR cyr-ve
ENCODING 226
SWIDTH 461 0
DWIDTH 6 0
BBX 6 13 0 -2
BITMAP
00
00
00
00
00
78
24
38
24
24
78
00
00
ENDCHAR
STARTCHAR cyr-ghe
ENCODING 227
SWIDTH 461 0
DWIDTH 6 0
BBX 6 13 0 -2
BITMAP
00
00
00
00
00
7c
24
20
20
20
70
00
00
ENDCHAR
STARTCHAR cyr-de
ENCODING 228
SWIDTH 538 0
DWIDTH 7 0
BBX 7 13 0 -2
BITMAP
00
00
00
00
00
1c
14
14
14
24
7e
42
00
ENDCHAR
STARTCHAR cyr-ie
ENCODING 229
SWIDTH 384 0
DWIDTH 5 0
BBX 5 13 0 -2
BITMAP
00
00
00
00
00
30
48
78
40
48
30
00
00
ENDCHAR
STARTCHAR cyr-zhe
ENCODING 230
SWIDTH 615 0
DWIDTH 8 0
BBX 8 13 0 -2
BITMAP
00
00
00
00
00
49
2a
1c
2a
49
49
00
00
ENDCHAR
STARTCHAR cyr-z
ENCODING 231
SWIDTH 461 0
DWIDTH 6 0
BBX 6 13 0 -2
BITMAP
00
00
00
00
00
38
44
08
04
44
38
00
00
ENDCHAR
STARTCHAR cyr-i
ENCODING 232
SWIDTH 384 0
DWIDTH 5 0
BBX 5 13 0 -2
BITMAP
00
00
00
00
00
48
48
58
68
48
48
00
00
ENDCHAR
STARTCHAR cyr-i-short
ENCODING 233
SWIDTH 384 0
DWIDTH 5 0
BBX 5 13 0 -2
BITMAP
00
00
00
30
00
48
48
58
68
48
48
00
00
ENDCHAR
STARTCHAR cyr-ka
ENCODING 234
SWIDTH 384 0
DWIDTH 5 0
BBX 5 13 0 -2
BITMAP
00
00
00
00
00
48
50
60
50
48
48
00
00
ENDCHAR
STARTCHAR cyr-el
ENCODING 235
SWIDTH 384 0
DWIDTH 5 0
BBX 5 13 0 -2
BITMAP
00
00
00
00
00
38
28
28
28
28
48
00
00
ENDCHAR
STARTCHAR cyr-em
ENCODING 236
SWIDTH 461 0
DWIDTH 6 0
BBX 6 13 0 -2
BITMAP
00
00
00
00
00
44
6c
6c
54
54
44
00
00
ENDCHAR
STARTCHAR cyr-en
ENCODING 237
SWIDTH 384 0
DWIDTH 5 0
BBX 5 13 0 -2
BITMAP
00
00
00
00
00
48
48
78
48
48
48
00
00
ENDCHAR
STARTCHAR cyr-o
ENCODING 238
SWIDTH 384 0
DWIDTH 5 0
BBX 5 13 0 -2
BITMAP
00
00
00
00
00
30
48
48
48
48
30
00
00
ENDCHAR
STARTCHAR cyr-pe
ENCODING 239
SWIDTH 384 0
DWIDTH 5 0
BBX 5 13 0 -2
BITMAP
00
00
00
00
00
78
48
48
48
48
48
00
00
ENDCHAR
STARTCHAR cyr-er
ENCODING 240
SWIDTH 461 0
DWIDTH 6 0
BBX 6 13 0 -2
BITMAP
00
00
00
00
00
78
24
24
24
24
38
20
70
ENDCHAR
STARTCHAR cyr-es
ENCODING 241
SWIDTH 384 0
DWIDTH 5 0
BBX 5 13 0 -2
BITMAP
00
00
00
00
00
30
48
40
40
48
30
00
00
ENDCHAR
STARTCHAR cyr-te
ENCODING 242
SWIDTH 461 0
DWIDTH 6 0
BBX 6 13 0 -2
BITMAP
00
00
00
00
00
7c
54
10
10
10
38
00
00
ENDCHAR
STARTCHAR cyr-u
ENCODING 243
SWIDTH 461 0
DWIDTH 6 0
BBX 6 13 0 -2
BITMAP
00
00
00
00
00
44
44
28
28
10
10
10
60
ENDCHAR
STARTCHAR cyr-ef
ENCODING 244
SWIDTH 461 0
DWIDTH 6 0
BBX 6 13 0 -2
BITMAP
00
00
00
00
00
38
54
54
54
54
38
10
10
ENDCHAR
STARTCHAR cyr-kha
ENCODING 245
SWIDTH 461 0
DWIDTH 6 0
BBX 6 13 0 -2
BITMAP
00
00
00
00
00
6c
28
10
10
28
6c
00
00
ENDCHAR
STARTCHAR cyr-tse
ENCODING 246
SWIDTH 461 0
DWIDTH 6 0
BBX 6 13 0 -2
BITMAP
00
00
00
00
00
48
48
48
48
48
7c
04
00
ENDCHAR
STARTCHAR cyr-che
ENCODING 247
SWIDTH 384 0
DWIDTH 5 0
BBX 5 13 0 -2
BITMAP
00
00
00
00
00
48
48
48
38
08
08
00
00
ENDCHAR
STARTCHAR cyr-sha
ENCODING 248
SWIDTH 615 0
DWIDTH 8 0
BBX 8 13 0 -2
BITMAP
00
00
00
00
00
49
49
49
49
49
7f
00
00
ENDCHAR
STARTCHAR cyr-shcha
ENCODING 249
SWIDTH 692 0
DWIDTH 9 0
BBX 9 13 0 -2
BITMAP
0000
0000
0000
0000
0000
4900
4900
4900
4900
4900
7f80
0080
0000
ENDCHAR
STARTCHAR cyr-ier
ENCODING 250
SWIDTH 538 0
DWIDTH 7 0
BBX 7 13 0 -2
BITMAP
00
00
00
00
00
70
50
1c
12
12
3c
00
00
ENDCHAR
STARTCHAR cyr-iery
ENCODING 251
SWIDTH 615 0
DWIDTH 8 0
BBX 8 13 0 -2
BITMAP
00
00
00
00
00
63
21
39
25
25
7b
00
00
ENDCHAR
STARTCHAR cyr-ierik
ENCODING 252
SWIDTH 461 0
DWIDTH 6 0
BBX 6 13 0 -2
BITMAP
00
00
00
00
00
60
20
38
24
24
78
00
00
ENDCHAR
STARTCHAR cyr-e-rev
ENCODING 253
SWIDTH 461 0
DWIDTH 6 0
BBX 6 13 0 -2
BITMAP
00
00
00
00
00
38
44
1c
04
44
38
00
00
ENDCHAR
STARTCHAR cyr-yu
ENCODING 254
SWIDTH 692 0
DWIDTH 9 0
BBX 9 13 0 -2
BITMAP
0000
0000
0000
0000
0000
7600
2900
3900
2900
2900
7600
0000
0000
ENDCHAR
STARTCHAR cyr-ya
ENCODING 255
SWIDTH 461 0
DWIDTH 6 0
BBX 6 13 0 -2
BITMAP
00
00
00
00
00
3c
48
48
38
28
cc
00
00
ENDCHAR
ENDFONT
